<svg xmlns="http://www.w3.org/2000/svg" width="209" height="97" viewBox="0 0 209 97"><g transform="translate(-274 -284)"><rect width="209" height="97" rx="12" transform="translate(274 284)"/><g transform="translate(94.519 61.323)"><g transform="translate(220.278 251.317)"><path d="M0,0A20.852,20.852,0,0,1,27.016,15.6l14.279-2.916A35.426,35.426,0,0,0-4.617-13.821Z" fill="#fbc707"/></g><g transform="translate(203.429 297.593)"><path d="M0,0,9.656-10.917a20.78,20.78,0,0,1-7.028-15.6A20.772,20.772,0,0,1,9.651-42.108L-.008-53.027a35.315,35.315,0,0,0-11.94,26.509A35.321,35.321,0,0,0,0,0" fill="#38a7e4"/></g><g transform="translate(247.286 275.256)"><path d="M0,0A20.819,20.819,0,0,1-20.4,16.647a20.693,20.693,0,0,1-6.612-1.072L-31.639,29.4A35.339,35.339,0,0,0-20.4,31.215,35.4,35.4,0,0,0,14.281,2.924Z" fill="#ef3120"/></g><g transform="translate(302.593 282.828)"><path d="M0,0A.056.056,0,0,0-.011.016L-.419-.261A11.436,11.436,0,0,1-5.713,4.171c-4.383,1.907-8.443,1.417-11.357-1.14l-.268.405s0-.007-.008-.007l-4.973,7.439a21.4,21.4,0,0,0,3.951,2.165A20.605,20.605,0,0,0-1.719,12.8,20.479,20.479,0,0,0,7.576,5.065ZM-15.524-18.351A10.756,10.756,0,0,0-22.041-6.933l19.6-8.436c-3.367-3.963-7.755-5.273-13.079-2.981M-28.533,4.308a25.088,25.088,0,0,1-1.488-2.863,21.012,21.012,0,0,1-.46-15.9A20.979,20.979,0,0,1-19.191-26.779,21.744,21.744,0,0,1,.779-25.325c3.964,2.275,6.776,5.788,8.912,10.756.273.636.509,1.319.744,1.895Z" fill="#fff"/></g><g transform="translate(326.65 245.093)"><path d="M0,0V41.357l6.429,2.6L2.776,52.484l-7.1-2.949a8.07,8.07,0,0,1-3.5-2.94,9.271,9.271,0,0,1-1.371-5.124V0Z" fill="#fff"/></g><g transform="translate(343.304 275.913)"><path d="M0,0A11.712,11.712,0,0,1,4.021-8.825l-6.6-7.353A21.551,21.551,0,0,0-9.872-.009,21.528,21.528,0,0,0-2.593,16.183L3.992,8.819A11.719,11.719,0,0,1,0,0" fill="#fff"/></g><g transform="translate(355.025 287.65)"><path d="M0,0A11.822,11.822,0,0,1-3.716-.608L-6.867,8.763A21.609,21.609,0,0,0-.008,9.88,21.621,21.621,0,0,0,21.177-7.373L11.495-9.348A11.73,11.73,0,0,1,0,0" fill="#fff"/></g><g transform="translate(355.054 254.317)"><path d="M0,0A21.6,21.6,0,0,0-6.852,1.1l3.125,9.376a11.868,11.868,0,0,1,3.719-.6,11.723,11.723,0,0,1,11.481,9.4l9.685-1.967A21.61,21.61,0,0,0,0,0" fill="#fff"/></g></g></g></svg>