<svg xmlns="http://www.w3.org/2000/svg" width="479.035" height="272.848" viewBox="0 0 479.035 272.848"><g transform="translate(-123.876 -188.024)"><path d="M764.745,1333.937h5.415v143.78h-5.415Zm10.83,0h5.415v143.78h-5.415Zm32.513,0H813.5v143.78h-5.415Zm105.4,0h5.415v143.78h-5.415Zm35.238,0h5.415v143.78h-5.415Zm34.169,0h5.415v143.78H982.9Zm8.807,0h5.415v143.78H991.7Zm8.818,0h5.415v143.78h-5.415Zm9.91,0h5.415v143.78h-5.415Zm9.91,0h5.415v143.78h-5.415Zm27.546,0h5.415v143.78h-5.415Zm68.3,0h5.415v143.78h-5.415Zm71.246,0h5.415v143.78h-5.415Zm19.487,0h5.415v143.78h-5.415Zm14.084,0h5.415v143.78h-5.415Zm8.669,0h5.415v143.78h-5.415Zm-385.834,0h5.415v143.78h-5.415Zm-54.185,0h9.749v143.78h-9.749Zm64.348,0h9.749v143.78h-9.749Zm45.183,0h9.749v143.78h-9.749Zm23.132,0h9.749v143.78h-9.749Zm36.353,0h9.749v143.78h-9.749Zm103.644,0h15.164v143.78h-15.164Zm19.809,0h11.922v143.78h-11.922Zm20.9,0h9.749v143.78h-9.749Zm27.639,0h16.256v143.78h-16.256Zm31.835,0h16.257v143.78H1162.5Zm-343.583,0h19.5v143.78h-19.5Zm50.54,0h15.164v143.78H869.459Z" transform="translate(-640.869 -1145.913)" fill="#010101"/><path d="M802.576,2430.016v-82.294h30.88a38.22,38.22,0,0,1,15.13,2.495,19.45,19.45,0,0,1,8.922,7.692,20.268,20.268,0,0,1,3.231,10.864,18.659,18.659,0,0,1-2.864,9.935,20.441,20.441,0,0,1-8.645,7.518,21.5,21.5,0,0,1,11.5,7.461,19.992,19.992,0,0,1,4.012,12.462,24.04,24.04,0,0,1-2.437,10.75,20.808,20.808,0,0,1-6.059,7.668,25.186,25.186,0,0,1-9.013,4.07,54.785,54.785,0,0,1-13.267,1.38Zm10.9-47.712h17.8a39.706,39.706,0,0,0,10.347-.955,11.5,11.5,0,0,0,6.254-4.093,11.807,11.807,0,0,0,2.1-7.185,13.232,13.232,0,0,0-1.966-7.208,9.943,9.943,0,0,0-5.564-4.277,46.883,46.883,0,0,0-12.52-1.15H813.475Zm0,38.009h20.487a47.181,47.181,0,0,0,7.416-.391,17.756,17.756,0,0,0,6.289-2.3,11.925,11.925,0,0,0,4.15-4.6,14.324,14.324,0,0,0,1.632-6.9,13.669,13.669,0,0,0-2.357-8.048,12.438,12.438,0,0,0-6.542-4.771,40.553,40.553,0,0,0-12.037-1.38H813.475Zm67.176-30.375a44.724,44.724,0,0,1,11-32.088,37.41,37.41,0,0,1,28.409-11.589,39.41,39.41,0,0,1,20.545,5.449,35.557,35.557,0,0,1,13.946,15.187,49.322,49.322,0,0,1,4.794,22.085,48.493,48.493,0,0,1-5.047,22.4,34.489,34.489,0,0,1-14.313,14.946A40.89,40.89,0,0,1,920,2431.407a38.919,38.919,0,0,1-20.763-5.6,36.124,36.124,0,0,1-13.877-15.337,46.446,46.446,0,0,1-4.714-20.533Zm11.232.172a32.975,32.975,0,0,0,8.048,23.442,27.81,27.81,0,0,0,40.239-.092,34.95,34.95,0,0,0,7.944-24.534,42.161,42.161,0,0,0-3.345-17.544,26.1,26.1,0,0,0-9.933-11.623,26.936,26.936,0,0,0-14.681-4.127,27.845,27.845,0,0,0-19.9,7.944,35.479,35.479,0,0,0-8.37,26.523Zm85.318,39.906v-82.294h10.887v72.58h40.526v9.715Zm68.866,0v-82.294h59.508v9.715h-48.62v25.2h45.527v9.658h-45.527V2420.3h50.529v9.715Zm101.655,0v-72.579H1120.6v-9.715h65.233v9.715H1158.61v72.579Zm48.149-40.078a44.724,44.724,0,0,1,11.026-32.088,37.41,37.41,0,0,1,28.409-11.589,39.41,39.41,0,0,1,20.545,5.449A35.558,35.558,0,0,1,1269.8,2366.9a49.32,49.32,0,0,1,4.794,22.085,48.493,48.493,0,0,1-5.047,22.4,34.489,34.489,0,0,1-14.36,14.958,40.9,40.9,0,0,1-19.981,5.082,38.917,38.917,0,0,1-20.775-5.61,36.125,36.125,0,0,1-13.842-15.337A46.446,46.446,0,0,1,1195.871,2389.938Zm11.233.172a32.974,32.974,0,0,0,8.048,23.442,27.9,27.9,0,0,0,40.308-.081,34.951,34.951,0,0,0,7.944-24.535,42.154,42.154,0,0,0-3.449-17.544,26.1,26.1,0,0,0-9.933-11.623,26.937,26.937,0,0,0-14.682-4.127,27.845,27.845,0,0,0-19.9,7.945,35.478,35.478,0,0,0-8.347,26.511Z" transform="translate(-671.686 -1970.552)"/></g></svg>